<mxfile host="65bd71144e">
    <diagram id="9PX9DanC-ISpQuEev9MH" name="Page-1">
        <mxGraphModel dx="942" dy="741" grid="1" gridSize="10" guides="1" tooltips="1" connect="1" arrows="1" fold="1" page="1" pageScale="1" pageWidth="827" pageHeight="1169" math="0" shadow="0">
            <root>
                <mxCell id="0"/>
                <mxCell id="1" parent="0"/>
                <mxCell id="4" style="edgeStyle=none;html=1;" edge="1" parent="1" source="3">
                    <mxGeometry relative="1" as="geometry">
                        <mxPoint x="300" y="680" as="targetPoint"/>
                    </mxGeometry>
                </mxCell>
                <mxCell id="3" value="Form Data&amp;nbsp;&lt;br&gt;{&lt;br&gt;name, email, mobile_number,&amp;nbsp;&lt;br&gt;File Blob&amp;nbsp;" style="whiteSpace=wrap;html=1;aspect=fixed;" vertex="1" parent="1">
                    <mxGeometry x="210" y="310" width="180" height="180" as="geometry"/>
                </mxCell>
                <mxCell id="7" value="" style="edgeStyle=none;html=1;entryX=0;entryY=0;entryDx=0;entryDy=52.5;entryPerimeter=0;" edge="1" parent="1" source="5" target="9">
                    <mxGeometry relative="1" as="geometry">
                        <mxPoint x="460" y="710" as="targetPoint"/>
                    </mxGeometry>
                </mxCell>
                <mxCell id="12" style="edgeStyle=none;html=1;" edge="1" parent="1" source="5" target="10">
                    <mxGeometry relative="1" as="geometry"/>
                </mxCell>
                <mxCell id="5" value="Server&amp;nbsp;" style="rounded=1;whiteSpace=wrap;html=1;" vertex="1" parent="1">
                    <mxGeometry x="240" y="680" width="120" height="60" as="geometry"/>
                </mxCell>
                <mxCell id="15" style="edgeStyle=none;html=1;" edge="1" parent="1" target="ELr5Hqd_BwZJ2ls8UCC6-16">
                    <mxGeometry relative="1" as="geometry">
                        <mxPoint x="520" y="1060" as="targetPoint"/>
                        <mxPoint x="270" y="750" as="sourcePoint"/>
                        <Array as="points">
                            <mxPoint x="270" y="740"/>
                        </Array>
                    </mxGeometry>
                </mxCell>
                <mxCell id="9" value="Database&lt;br&gt;" style="shape=cylinder3;whiteSpace=wrap;html=1;boundedLbl=1;backgroundOutline=1;size=15;" vertex="1" parent="1">
                    <mxGeometry x="500" y="660" width="60" height="80" as="geometry"/>
                </mxCell>
                <mxCell id="14" style="edgeStyle=none;html=1;entryX=0.145;entryY=1;entryDx=0;entryDy=-4.35;entryPerimeter=0;" edge="1" parent="1" source="10" target="9">
                    <mxGeometry relative="1" as="geometry"/>
                </mxCell>
                <mxCell id="10" value="AWS &lt;br&gt;Storage&amp;nbsp;" style="shape=cube;whiteSpace=wrap;html=1;boundedLbl=1;backgroundOutline=1;darkOpacity=0.05;darkOpacity2=0.1;" vertex="1" parent="1">
                    <mxGeometry x="330" y="870" width="120" height="80" as="geometry"/>
                </mxCell>
                <mxCell id="ELr5Hqd_BwZJ2ls8UCC6-18" value="" style="edgeStyle=none;html=1;" edge="1" parent="1" source="ELr5Hqd_BwZJ2ls8UCC6-16" target="ELr5Hqd_BwZJ2ls8UCC6-17">
                    <mxGeometry relative="1" as="geometry"/>
                </mxCell>
                <mxCell id="ELr5Hqd_BwZJ2ls8UCC6-16" value="FRONT UI&amp;nbsp;&lt;br&gt;END" style="shape=hexagon;perimeter=hexagonPerimeter2;whiteSpace=wrap;html=1;fixedSize=1;" vertex="1" parent="1">
                    <mxGeometry x="210" y="1040" width="120" height="80" as="geometry"/>
                </mxCell>
                <mxCell id="ELr5Hqd_BwZJ2ls8UCC6-17" value="Skill Wise resources,&amp;nbsp;&lt;br&gt;Year of Experience&amp;nbsp;" style="whiteSpace=wrap;html=1;" vertex="1" parent="1">
                    <mxGeometry x="410" y="1050" width="120" height="60" as="geometry"/>
                </mxCell>
            </root>
        </mxGraphModel>
    </diagram>
    <diagram id="k5qKCBDkPbiDrV9caVKk" name="Page-2">
        <mxGraphModel dx="942" dy="741" grid="1" gridSize="10" guides="1" tooltips="1" connect="1" arrows="1" fold="1" page="1" pageScale="1" pageWidth="827" pageHeight="1169" math="0" shadow="0">
            <root>
                <mxCell id="0"/>
                <mxCell id="1" parent="0"/>
            </root>
        </mxGraphModel>
    </diagram>
</mxfile>